<?xml version="1.0" standalone="no"?>
<!DOCTYPE svg PUBLIC "-//W3C//DTD SVG 20010904//EN"
 "">
<svg version="1.0" xmlns="http://www.w3.org/2000/svg"
 width="1963.000000pt" height="1897.000000pt" viewBox="0 0 1963.000000 1897.000000"
 preserveAspectRatio="xMidYMid meet">

<g transform="translate(0.000000,1897.000000) scale(0.100000,-0.100000)"
fill="#000000" stroke="none">
<path d="M6385 18600 c-385 -4 -1233 -13 -1885 -19 -1544 -14 -1647 -16 -1770
-47 -52 -14 -115 -31 -140 -39 -25 -8 -99 -31 -165 -51 -121 -38 -265 -103
-383 -175 -35 -21 -67 -39 -70 -39 -6 0 -195 -127 -277 -187 -136 -98 -454
-408 -510 -498 -11 -17 -32 -45 -48 -64 -31 -37 -126 -179 -171 -255 -90 -155
-200 -407 -255 -586 -12 -41 -27 -88 -33 -105 -6 -16 -16 -55 -23 -85 -8 -30
-23 -95 -35 -145 l-22 -90 -10 -3285 c-7 -2305 -7 -4299 1 -6685 11 -3361 11
-3401 31 -3505 12 -58 25 -136 31 -175 5 -38 16 -99 24 -135 8 -36 17 -87 21
-115 4 -27 10 -55 15 -60 4 -6 21 -47 38 -90 112 -302 279 -611 432 -799 32
-39 82 -100 111 -136 63 -78 178 -192 271 -269 90 -75 234 -177 277 -196 19
-9 41 -22 50 -30 30 -27 161 -91 375 -184 113 -49 226 -85 460 -144 123 -32
162 -39 250 -47 83 -7 2963 -18 6060 -22 710 -1 2053 3 2985 10 2589 18 4397
30 4480 29 41 0 104 7 140 16 36 9 92 23 125 31 63 15 108 29 163 52 18 8 51
17 75 20 23 4 51 13 62 20 11 8 27 14 36 14 15 0 60 17 154 60 22 10 74 34
115 52 41 19 95 47 120 63 25 16 68 41 95 55 162 84 432 308 593 494 124 144
177 217 271 381 29 50 57 97 62 105 5 8 14 26 20 40 5 14 21 48 34 75 13 28
44 104 70 170 25 66 52 136 60 155 7 19 16 52 19 74 3 21 12 46 19 55 8 9 18
41 22 71 4 30 12 64 18 75 13 24 29 159 29 235 0 30 -4 244 -8 475 -5 231 -6
674 -3 985 27 2307 30 2919 22 4610 -8 1866 -10 3624 -5 4625 2 325 0 1020 -4
1545 -5 713 -4 1012 6 1182 12 234 9 282 -32 403 -5 17 -14 50 -19 75 -6 25
-16 56 -23 70 -8 14 -17 41 -21 60 -4 19 -11 40 -15 45 -3 6 -17 39 -30 75
-13 36 -29 76 -36 90 -7 14 -49 98 -93 188 -45 89 -89 175 -100 190 -10 15
-36 54 -57 87 -201 314 -536 627 -873 817 -65 36 -132 70 -221 111 -25 11 -57
26 -72 34 -14 7 -32 13 -40 13 -7 0 -30 9 -49 19 -20 11 -70 30 -110 42 -41
12 -78 25 -84 29 -5 4 -26 11 -45 15 -19 4 -73 18 -119 31 -46 13 -140 36
-210 51 l-126 27 -1390 6 c-2348 12 -7920 18 -8660 10z m10148 -1224 l33 -13
23 -204 c81 -731 221 -2252 208 -2265 -2 -2 -550 -94 -1218 -204 -1927 -318
-4152 -689 -5759 -959 -1831 -307 -3864 -652 -3866 -654 -5 -8 31 -905 57
-1412 48 -964 58 -1061 110 -1124 l20 -24 72 16 c40 8 315 70 612 136 697 154
1156 253 1160 249 1 -2 12 -196 24 -433 12 -236 40 -749 62 -1140 21 -390 39
-739 39 -775 0 -78 -35 -165 -72 -179 -13 -4 -422 -98 -910 -207 l-888 -199 0
-60 c0 -98 101 -2293 116 -2527 l6 -98 71 0 c46 0 621 93 1666 270 2464 416
4076 686 6543 1098 l2267 379 5 -36 c40 -251 191 -1645 244 -2254 16 -185 16
-207 2 -212 -8 -2 -535 -90 -1170 -194 -3204 -528 -9456 -1576 -9469 -1588 -9
-7 37 -1089 55 -1300 l6 -73 -1251 0 -1251 0 0 68 c0 86 -17 579 -26 745 l-7
127 -41 0 c-75 0 -447 -50 -733 -99 l-162 -28 -5 46 c-9 66 -96 936 -176 1746
-38 385 -66 702 -62 706 8 6 181 34 690 109 178 27 326 51 329 54 3 3 1 94 -6
203 -37 650 -111 2176 -111 2316 l0 37 -54 0 c-30 0 -101 -11 -158 -24 -228
-54 -753 -156 -803 -156 -22 0 -22 3 -29 168 -16 392 -59 1147 -96 1691 -20
281 -20 303 -5 465 9 94 17 171 18 172 1 1 79 20 172 42 212 51 428 94 616
122 79 12 146 24 148 25 1 2 10 47 19 100 15 93 14 120 -17 649 -59 1005 -91
1649 -91 1822 0 195 -2 199 -74 165 -23 -12 -82 -25 -136 -31 -144 -16 -294
-39 -404 -61 -54 -12 -102 -17 -106 -12 -24 25 -299 2468 -280 2487 3 2 73 14
155 26 169 25 393 66 569 107 l118 27 -6 55 c-20 194 -56 865 -56 1057 l0 134
1248 0 1249 0 6 -247 c9 -321 27 -487 59 -545 21 -38 28 -43 56 -40 38 3 4715
786 8122 1361 1334 225 2440 409 2458 410 18 0 47 -5 65 -13z m-3194 -4277
c40 -14 51 -41 51 -120 l0 -60 43 5 c73 10 280 26 339 26 l56 0 6 -37 c15
-100 88 -884 83 -889 -4 -4 -46 -13 -94 -21 -70 -11 -258 -65 -270 -77 -13
-12 199 -1159 217 -1180 5 -4 77 6 162 22 233 47 598 91 759 92 14 0 5 48 -61
309 l-77 310 25 6 c34 8 790 8 824 0 22 -6 29 -20 61 -123 31 -99 51 -176 83
-320 4 -22 9 -23 47 -19 23 2 52 8 63 12 20 6 23 -1 52 -157 45 -233 67 -402
87 -654 l7 -81 -84 -5 c-62 -3 -98 -11 -140 -31 -32 -14 -58 -28 -58 -30 0 -2
27 -70 60 -152 33 -82 60 -152 60 -155 0 -10 -223 -78 -345 -105 -151 -34
-149 -35 -227 160 -33 83 -64 156 -70 162 -32 39 -31 39 -1471 -178 -766 -115
-1398 -212 -1406 -215 -18 -6 -10 -227 13 -334 20 -93 65 -240 72 -240 4 0 27
15 53 34 120 89 262 137 397 137 134 -1 244 -38 382 -129 l55 -37 134 0 133 0
222 222 c172 171 234 227 272 244 98 43 179 61 301 66 102 5 134 2 205 -16
136 -34 360 -156 367 -201 3 -17 -90 -148 -110 -156 -7 -2 -47 15 -90 39 -160
92 -342 128 -474 94 -157 -41 -308 -162 -406 -325 -26 -43 -47 -62 -112 -102
-166 -100 -194 -110 -298 -110 -119 0 -193 20 -281 75 -88 54 -237 125 -265
125 -79 0 -328 -128 -454 -233 l-28 -24 15 -76 c9 -42 16 -103 16 -137 0 -57
1 -60 23 -55 12 2 96 14 187 25 746 93 2577 363 2597 384 3 3 19 66 34 138 16
73 40 184 55 245 l25 112 91 -45 c49 -25 140 -66 202 -91 61 -25 116 -49 122
-54 17 -14 36 -90 38 -156 2 -67 -19 -61 165 -43 57 5 120 10 140 10 l37 0 13
-167 c7 -93 21 -246 31 -342 17 -160 17 -180 3 -265 -8 -50 -16 -92 -17 -93
-10 -12 -2105 -341 -3103 -487 -238 -34 -439 -68 -447 -75 -8 -6 -21 -26 -29
-44 -13 -29 -12 -46 9 -177 12 -80 26 -198 30 -262 l7 -118 -1246 0 -1247 0 0
110 0 110 -32 0 c-55 0 -307 -40 -413 -65 -55 -13 -101 -22 -103 -20 -7 7 -74
658 -74 715 1 36 7 92 14 125 l13 60 110 22 c61 12 153 25 207 29 53 4 101 10
107 13 7 5 4 58 -10 176 -25 212 -80 621 -111 823 l-23 152 -30 0 c-36 0 -252
-25 -377 -44 -65 -9 -91 -10 -93 -2 -2 6 -9 103 -15 216 -7 113 -20 311 -30
440 -10 129 -18 235 -17 236 1 1 98 8 215 16 117 9 214 17 217 19 2 2 -12 121
-31 264 -51 386 -114 847 -119 871 -4 19 -10 21 -57 17 -227 -18 -485 -57
-673 -101 -44 -11 -81 -19 -82 -18 -18 15 -107 945 -92 960 3 3 168 32 368 66
200 33 367 62 371 65 3 2 -9 127 -27 277 -17 150 -32 297 -33 326 l0 52 1237
-2 1237 -3 13 -50 c7 -27 13 -83 13 -123 l0 -73 53 7 c149 18 754 126 763 137
24 29 68 154 85 244 l11 61 82 6 c44 3 171 11 281 17 110 6 232 15 270 19 106
11 119 11 154 -1z"/>
<path d="M11820 11532 l-22 -17 21 -112 c43 -228 97 -583 121 -798 6 -55 13
-105 15 -111 8 -26 654 72 899 137 l38 10 -6 52 c-13 93 -76 419 -86 437 -7
14 -928 420 -951 420 -4 0 -17 -8 -29 -18z"/>
</g>
</svg>
